<?xml version="1.0"?>
<svg width="721" height="749" xmlns="http://www.w3.org/2000/svg" xmlns:svg="http://www.w3.org/2000/svg" enable-background="new 0 0 1366 768" version="1.1" xml:space="preserve">
 <style type="text/css">.st0{fill:#FFFFFF;}
	.st1{fill:#5276A7;}
	.st2{fill:#91A8C7;}
	.st3{fill:#E5D9EC;}
	.st4{fill:#4B458C;}
	.st5{fill:#4B468C;}</style>
 <g class="layer">
  <title>Layer 1</title>
  <g id="svg_1">
   <g id="svg_2">
    <path class="st1" d="m364.4,6.68c3.55,-2.71 7.63,-4.24 11.9,-5.33c1,-0.26 2.07,-0.24 3.08,-0.49c0.6,-0.15 1.13,-0.57 1.69,-0.86c3.15,0 6.29,0 9.44,0c0.9,0.29 1.78,0.71 2.71,0.85c13.14,2.06 22.79,9.04 29.29,20.57c1.96,3.47 3.47,7.1 4.09,11.01c0.48,3 0.83,6.08 0.73,9.1c-0.13,4.15 -0.5,8.35 -2.18,12.24c-1.24,2.86 -2.67,5.63 -4.07,8.41c-4.05,8.01 -8.12,16.02 -12.22,24.01c-5.27,10.24 -10.58,20.46 -15.87,30.69c-4.87,9.43 -9.74,18.88 -14.61,28.31c-1.11,-0.42 -2.26,-0.75 -3.32,-1.27c-4.57,-2.23 -9.11,-4.51 -13.67,-6.77c-6.96,-3.44 -13.93,-6.88 -20.89,-10.32c0.46,-0.44 1.07,-0.8 1.36,-1.34c1.65,-3.02 3.23,-6.07 4.82,-9.12c2.11,-4.05 4.2,-8.1 6.29,-12.15c5.41,-10.51 10.82,-21.01 16.21,-31.53c2.32,-4.53 4.39,-9.2 6.91,-13.61c2.06,-3.62 3.49,-7.4 4.29,-11.45c1.06,-5.41 0.99,-10.81 -0.15,-16.2c-0.85,-4.04 -2.27,-7.83 -4.38,-11.44c-2.45,-4.19 -5.52,-7.78 -9.03,-11.06c-0.8,-0.74 -1.61,-1.49 -2.42,-2.25z" id="svg_3"/>
    <path class="st2" d="m35.44,749.22c0.02,-0.16 0.03,-0.32 0.05,-0.48c3.71,0 7.42,0 11.13,0c0.02,0.16 0.04,0.32 0.06,0.49c-3.75,-0.01 -7.49,-0.01 -11.24,-0.01z" id="svg_4"/>
    <path class="st3" d="m340.51,126.85c6.96,3.44 13.93,6.87 20.89,10.32c4.56,2.25 9.1,4.54 13.67,6.77c1.06,0.52 2.21,0.85 3.32,1.27c0.36,0.25 0.7,0.56 1.09,0.75c10.61,5.22 21.22,10.43 31.83,15.64c2.55,-1.19 5.21,-0.67 7.84,-0.49c0.59,0.04 1.17,0.19 1.77,0.24c3.78,0.3 7.57,0.57 11.35,0.89c3.41,0.29 6.83,0.54 10.22,0.96c3.17,0.39 6.33,0.91 9.47,1.51c5.7,1.08 11.4,2.15 17.06,3.4c5.16,1.15 10.3,2.41 15.39,3.85c5.31,1.5 10.57,3.19 15.8,4.93c5.73,1.92 11.44,3.9 17.09,6.03c4.33,1.63 8.58,3.48 12.81,5.35c5.13,2.26 10.25,4.53 15.28,7c5.22,2.57 10.35,5.34 15.48,8.1c3.75,2.02 7.52,4.01 11.11,6.3c6.79,4.33 13.51,8.79 20.16,13.34c3.81,2.61 7.46,5.45 11.1,8.31c3.4,2.67 6.73,5.42 9.98,8.27c3.7,3.25 7.34,6.58 10.89,10c3.92,3.78 7.8,7.61 11.54,11.56c5.64,5.96 10.93,12.24 16.01,18.68c6.66,8.44 12.68,17.33 18.54,26.35c6.04,9.3 11.13,19.09 16.21,28.92c4.64,8.97 8.54,18.25 12.06,27.7c2.03,5.46 4.28,10.84 6.05,16.38c3.48,10.93 6.6,21.98 8.76,33.27c1.11,5.77 2.39,11.51 3.43,17.28c0.89,4.9 1.65,9.82 2.29,14.76c0.47,3.61 0.57,7.27 0.98,10.89c0.54,4.75 0.61,9.52 0.95,14.27c0.75,10.25 0.26,20.49 0.3,30.73c0.02,4.83 -0.45,9.67 -0.87,14.5c-0.49,5.63 -1.03,11.26 -1.82,16.85c-0.82,5.81 -2.02,11.56 -2.96,17.36c-1.56,9.64 -3.88,19.11 -6.38,28.54c-2.21,8.37 -4.7,16.65 -7.91,24.71c-1.96,4.92 -3.65,9.95 -5.62,14.87c-1.66,4.16 -3.43,8.28 -5.36,12.32c-2.9,6.07 -5.88,12.11 -9.04,18.04c-2.84,5.34 -5.78,10.64 -9.01,15.75c-4.23,6.68 -8.78,13.16 -13.2,19.72c-0.16,0.23 -0.46,0.37 -0.69,0.55l0,0c0.31,-1.07 0.54,-2.16 0.93,-3.2c3.67,-9.7 7.21,-19.45 9.9,-29.49c1.53,-5.69 3.22,-11.33 4.56,-17.06c1.21,-5.21 2.08,-10.5 3.03,-15.77c0.64,-3.51 1.26,-7.03 1.7,-10.56c0.45,-3.62 0.67,-7.26 1,-10.89c0.27,-2.96 0.56,-5.92 0.82,-8.88c0.06,-0.67 0.06,-1.35 0.06,-2.02c0.01,-7.34 0.11,-14.68 -0.03,-22.02c-0.09,-4.69 -0.48,-9.37 -0.86,-14.05c-0.37,-4.45 -0.75,-8.9 -1.4,-13.31c-0.8,-5.44 -1.85,-10.84 -2.84,-16.26c-1.56,-8.6 -4.22,-16.91 -6.75,-25.25c-2.5,-8.23 -5.43,-16.29 -8.96,-24.12c-3.16,-7.01 -6.51,-13.94 -9.99,-20.8c-2.3,-4.52 -4.76,-8.99 -7.53,-13.24c-5.25,-8.06 -10.64,-16.04 -16.23,-23.88c-3.11,-4.36 -6.65,-8.42 -10.11,-12.52c-2.7,-3.19 -5.56,-6.24 -8.38,-9.32c-3.58,-3.91 -7.07,-7.91 -10.83,-11.64c-4.45,-4.42 -9.02,-8.73 -13.75,-12.85c-6.07,-5.28 -12.22,-10.49 -18.59,-15.41c-5.77,-4.46 -11.81,-8.59 -17.85,-12.69c-6.05,-4.11 -12.2,-8.08 -18.39,-11.96c-4.24,-2.65 -8.62,-5.08 -12.97,-7.55c-4.03,-2.28 -8.05,-4.59 -12.17,-6.7c-5.98,-3.06 -12.05,-5.97 -18.09,-8.91c-2.76,-1.34 -5.53,-2.66 -8.32,-3.91c-5.32,-2.38 -10.61,-4.81 -15.99,-7.05c-10.69,-4.45 -21.52,-8.53 -32.56,-12.01c-10.44,-3.29 -20.96,-6.4 -31.75,-8.4c-6.58,-1.22 -13.15,-2.48 -19.76,-3.47c-3.89,-0.58 -7.86,-0.68 -11.79,-0.99c-2,-0.16 -4.01,-0.27 -6.01,-0.49c-0.57,-0.06 -1.13,-0.37 -1.66,-0.63c-10.21,-5.02 -20.41,-10.05 -30.62,-15.05c-0.79,-0.39 -1.66,-0.59 -2.5,-0.88c-0.6,-0.42 -1.15,-0.93 -1.79,-1.25c-3.35,-1.65 -6.73,-3.24 -10.07,-4.89c-7.9,-3.9 -15.79,-7.83 -23.69,-11.73c-0.46,-0.23 -0.96,-0.38 -1.45,-0.57c-1.81,-0.83 -3.64,-1.61 -5.42,-2.5c-3.95,-1.99 -7.84,-4.09 -11.8,-6.07c-5.06,-2.53 -10.15,-5.02 -15.26,-7.46c-1.23,-0.59 -2.57,-0.93 -3.86,-1.38c-0.7,-0.52 -1.34,-1.17 -2.11,-1.55c-7.57,-3.75 -15.17,-7.46 -22.75,-11.19c-0.73,-0.36 -1.43,-0.76 -2.33,-1.24c0.27,-0.79 0.42,-1.51 0.74,-2.15c4.03,-8.11 8.06,-16.22 12.14,-24.3c4.85,-9.61 9.77,-19.19 14.62,-28.81c5.35,-10.62 10.62,-21.27 15.97,-31.88c2.72,-5.41 5.53,-10.78 8.3,-16.16c0.92,-1.78 1.11,-1.86 2.93,-0.98c5.38,2.61 10.75,5.24 16.14,7.85c2.96,1.43 5.92,2.86 8.92,4.22c0.65,0.3 1.43,0.3 2.15,0.44c-0.02,1.09 0.92,1.24 1.61,1.59c7.51,3.72 15.02,7.44 22.55,11.12c3.74,1.82 7.52,3.58 11.28,5.38z" id="svg_5"/>
    <path class="st1" d="m286.69,231.92c0.48,0.19 0.98,0.34 1.45,0.57c7.9,3.91 15.79,7.83 23.69,11.73c3.35,1.65 6.73,3.24 10.07,4.89c0.65,0.32 1.2,0.83 1.79,1.25c-0.77,1.62 -1.5,3.25 -2.31,4.85c-1.95,3.88 -3.91,7.75 -5.9,11.61c-5.17,10.04 -10.36,20.07 -15.54,30.11c-5.01,9.7 -10.02,19.41 -15.04,29.11c-5.36,10.37 -10.74,20.73 -16.1,31.09c-5.05,9.77 -10.08,19.54 -15.13,29.31c-5.25,10.17 -10.51,20.34 -15.76,30.5c-5.01,9.7 -10.03,19.41 -15.05,29.11c-5.36,10.37 -10.73,20.73 -16.09,31.1c-5.08,9.83 -10.16,19.67 -15.24,29.51c-5.25,10.17 -10.5,20.34 -15.76,30.51c-5.05,9.77 -10.09,19.54 -15.14,29.31c-5.39,10.43 -10.79,20.87 -16.19,31.3c-4.91,9.5 -9.83,19 -14.74,28.51c-5.42,10.5 -10.84,21.01 -16.27,31.51c-4.91,9.5 -9.83,19 -14.74,28.51c-5.43,10.5 -10.84,21 -16.29,31.5c-1.76,3.38 -3.55,6.75 -5.38,10.09c-5.83,10.66 -14.82,17.16 -26.51,20.09c-1.29,0.32 -2.62,0.5 -3.93,0.74c-3.71,0 -7.42,0 -11.13,0c-1.73,-0.29 -3.52,-0.41 -5.19,-0.91c-4.63,-1.36 -9.01,-3.31 -12.92,-6.19c1.54,-1.02 3.22,-1.88 4.6,-3.09c3.81,-3.32 6.8,-7.34 9.15,-11.8c3.84,-7.27 7.62,-14.58 11.41,-21.87c4,-7.69 8,-15.39 11.99,-23.09c4.3,-8.29 8.6,-16.59 12.89,-24.89c5.01,-9.7 10.01,-19.4 15.01,-29.11c5.58,-10.84 11.15,-21.68 16.73,-32.52c1.71,-3.32 3.45,-6.63 5.17,-9.95c4.4,-8.5 8.78,-17.01 13.22,-25.49c3.88,-7.42 7.42,-15 11.49,-22.33c5.63,-10.13 10.7,-20.57 16,-30.87c3.11,-6.05 6.19,-12.13 9.31,-18.17c4.08,-7.91 8.2,-15.79 12.29,-23.69c4.13,-7.96 8.25,-15.94 12.4,-23.89c4.29,-8.22 8.2,-16.62 12.72,-24.72c5.2,-9.34 9.88,-18.97 14.78,-28.47c5.31,-10.3 10.61,-20.61 15.92,-30.92c2.16,-4.19 4.32,-8.37 6.49,-12.55c4.06,-7.83 8.12,-15.67 12.2,-23.49c4.22,-8.08 8.07,-16.35 12.52,-24.33c5.27,-9.47 10.03,-19.23 14.97,-28.88c4.3,-8.39 8.54,-16.81 12.83,-25.2c0.78,-1.53 1.7,-2.99 2.47,-4.52c1.01,-1.93 1.88,-3.91 2.79,-5.87z" id="svg_6"/>
    <path class="st3" d="m658.37,683.6c-0.06,0.06 -0.12,0.12 -0.18,0.19c0.01,-0.04 0.01,-0.09 0.03,-0.11c0.04,-0.04 0.1,-0.05 0.15,-0.08l0,0z" id="svg_7"/>
    <path class="st4" d="m286.69,231.92c-0.91,1.96 -1.78,3.94 -2.75,5.88c-0.77,1.54 -1.69,2.99 -2.47,4.52c-4.29,8.39 -8.53,16.81 -12.83,25.2c-4.95,9.65 -9.7,19.41 -14.97,28.88c-4.44,7.98 -8.3,16.24 -12.52,24.33c-4.08,7.82 -8.14,15.66 -12.2,23.49c-2.17,4.18 -4.34,8.37 -6.49,12.55c-5.31,10.3 -10.61,20.61 -15.92,30.92c-4.9,9.51 -9.57,19.14 -14.78,28.47c-4.52,8.11 -8.43,16.51 -12.72,24.72c-4.15,7.95 -8.26,15.93 -12.4,23.89c-4.1,7.9 -8.21,15.79 -12.29,23.69c-3.12,6.05 -6.2,12.12 -9.31,18.17c-5.3,10.31 -10.37,20.75 -16,30.87c-4.07,7.33 -7.61,14.91 -11.49,22.33c-4.44,8.48 -8.81,16.99 -13.22,25.49c-1.72,3.32 -3.46,6.63 -5.17,9.95c-5.58,10.84 -11.15,21.68 -16.73,32.52c-5,9.71 -10,19.41 -15.01,29.11c-4.29,8.3 -8.59,16.59 -12.89,24.89c-3.99,7.7 -7.99,15.4 -11.99,23.09c-3.79,7.3 -7.57,14.6 -11.41,21.87c-2.36,4.46 -5.34,8.48 -9.15,11.8c-1.38,1.2 -3.06,2.07 -4.6,3.09c-0.54,-0.36 -1.11,-0.68 -1.62,-1.07c-4.68,-3.63 -8.25,-8.15 -11.09,-13.35c-1.28,-2.34 -2.45,-4.69 -3.2,-7.24c-1.19,-4.07 -1.51,-8.25 -1.47,-12.49c0.05,-4.49 1.14,-8.74 2.59,-12.94c0.24,-0.68 0.55,-1.35 0.88,-2c4.82,-9.37 9.63,-18.75 14.47,-28.11c3.95,-7.64 7.93,-15.26 11.88,-22.9c6.62,-12.81 13.21,-25.64 19.82,-38.46c5.2,-10.09 10.42,-20.17 15.63,-30.27c5.21,-10.1 10.38,-20.22 15.6,-30.32c5.15,-9.95 10.34,-19.88 15.5,-29.83c4.99,-9.62 9.97,-19.24 14.95,-28.87c5.36,-10.37 10.7,-20.74 16.05,-31.11c5.11,-9.89 10.23,-19.78 15.34,-29.67c5.29,-10.23 10.57,-20.47 15.86,-30.7c3.15,-6.11 6.3,-12.22 9.47,-18.31c3.8,-7.29 7.64,-14.55 11.42,-21.85c3.09,-5.97 6.1,-11.99 9.18,-17.97c5.16,-10.04 10.35,-20.06 15.53,-30.09c5.48,-10.61 10.97,-21.22 16.45,-31.83c5.18,-10.02 10.35,-20.04 15.54,-30.06c4.5,-8.69 9,-17.37 13.5,-26.06c0.27,-0.53 0.48,-1.09 0.71,-1.64c1.29,0.45 2.64,0.79 3.86,1.38c5.11,2.44 10.19,4.93 15.26,7.46c3.95,1.98 7.85,4.07 11.8,6.07c1.76,0.9 3.59,1.68 5.4,2.51z" id="svg_8"/>
    <path class="st5" d="m340.51,126.85c-3.76,-1.79 -7.54,-3.56 -11.28,-5.39c-7.53,-3.68 -15.04,-7.4 -22.55,-11.12c-0.69,-0.34 -1.63,-0.49 -1.61,-1.59c1.67,-3.17 3.36,-6.34 5.01,-9.53c5.73,-11.08 11.44,-22.18 17.17,-33.27c4.49,-8.7 8.99,-17.39 13.5,-26.07c3.27,-6.29 6.5,-12.6 9.87,-18.84c3.07,-5.7 7.27,-10.42 12.78,-13.9c0.31,-0.2 0.67,-0.31 1.01,-0.47c0.81,0.75 1.62,1.51 2.42,2.26c3.51,3.28 6.58,6.88 9.03,11.06c2.11,3.6 3.53,7.39 4.38,11.44c1.14,5.39 1.21,10.79 0.15,16.2c-0.8,4.05 -2.23,7.83 -4.29,11.45c-2.51,4.42 -4.59,9.08 -6.91,13.61c-5.39,10.52 -10.8,21.02 -16.21,31.53c-2.09,4.06 -4.18,8.11 -6.29,12.15c-1.59,3.05 -3.17,6.1 -4.82,9.12c-0.29,0.56 -0.9,0.92 -1.36,1.36z" id="svg_9"/>
   </g>
  </g>
 </g>
</svg>